<svg width="41" height="41" viewBox="0 0 41 41" fill="none" xmlns="http://www.w3.org/2000/svg">
<g clip-path="url(#clip0_118_713)">
<path d="M13.6372 29.887L12.6235 29.5601C12.0203 29.3656 11.7132 28.6683 11.9577 28.0617C12.7581 26.0759 13.4106 24.3017 13.9736 22.5463C13.5297 22.5232 13.0741 22.4971 12.605 22.4681C12.0884 22.4361 11.6692 22.0179 11.6151 21.4816L11.4905 20.2449C11.4213 19.5574 11.9686 18.9733 12.6303 19.0222C13.4416 19.0823 14.213 19.1336 14.9531 19.1756C15.5149 17.0272 16.0032 14.7323 16.5158 11.9681C16.6417 11.2894 17.3248 10.8897 17.9442 11.1374L19.0584 11.5829C19.5417 11.7761 19.8208 12.3062 19.7168 12.8345C19.2349 15.2807 18.7722 17.3543 18.2594 19.3046C19.8379 19.3332 21.3194 19.3062 22.8229 19.2181C22.3192 17.293 21.8631 15.2445 21.3883 12.8345C21.2842 12.3062 21.5634 11.7761 22.0466 11.5829L23.1608 11.1374C23.7802 10.8897 24.4634 11.2894 24.5892 11.9681C25.083 14.6304 25.554 16.8572 26.09 18.9373C26.9341 18.8433 27.808 18.7312 28.7293 18.6C29.3549 18.5109 29.9218 19.0005 29.9461 19.658L29.9868 20.7628C30.0078 21.3341 29.6058 21.8287 29.0614 21.9002C28.3488 21.9937 27.6666 22.0786 27.0072 22.1548C27.5982 24.039 28.2874 25.9281 29.1474 28.0617C29.3919 28.6683 29.0847 29.3656 28.4815 29.5601L27.4678 29.887C26.9437 30.0561 26.3811 29.7795 26.174 29.2501C25.1909 26.7378 24.4174 24.5967 23.7554 22.474C21.5841 22.6435 19.5444 22.705 17.2896 22.6656C16.6409 24.7259 15.8846 26.8134 14.931 29.2501C14.7239 29.7795 14.1613 30.0561 13.6372 29.887Z" fill="#247155"/>
<path d="M37.6131 19.4589C41.3465 30.3081 32.4768 38.2894 27.5754 40.9238C35.3238 34.3676 32.242 24.4883 31.9779 19.4589C31.7515 15.1479 35.676 15.0581 37.6131 19.4589Z" fill="#14A679"/>
<path d="M6.68934 32.9127C-2.65478 26.4811 -0.208932 14.6775 2.18201 9.57959C-0.198181 19.5573 8.05556 25.6074 11.2106 29.4819C13.915 32.8028 10.8188 35.2642 6.68934 32.9127Z" fill="#14A679"/>
<path d="M4.78188 11.8988C7.80515 0.821952 19.5564 -0.548179 25.0541 0.151367C15.0217 1.007 12.008 10.9081 9.40376 15.1873C7.17148 18.8552 3.90229 16.6386 4.78188 11.8988Z" fill="#14A679"/>
<path d="M26.3816 38.2778C17.0843 44.7798 7.21973 38.1235 3.44958 33.9826C11.6733 39.9059 20.2221 34.2982 24.914 32.7282C28.9356 31.3826 30.0427 35.2241 26.3816 38.2778Z" fill="#14A679"/>
<path d="M24.4016 3.10317C35.6742 3.05664 40.1642 14.2179 41.0001 19.8044C37.4632 10.1902 27.3024 9.92626 22.5568 8.53438C18.4892 7.34135 19.6907 3.52949 24.4016 3.10317Z" fill="#14A679"/>
</g>
<defs>
<clipPath id="clip0_118_713">
<rect width="41" height="41" fill="white"/>
</clipPath>
</defs>
</svg>
