<svg width="24" height="26" viewBox="0 0 24 26" fill="none" xmlns="http://www.w3.org/2000/svg">
<g filter="url(#filter0_d_94_1460)">
<circle cx="12" cy="12" r="12" fill="#FCB213"/>
<circle cx="12" cy="12" r="9.72" stroke="#FDC93F" stroke-width="4.56"/>
</g>
<path d="M12.3692 5.83789H15.7426V6.66532H12.3692V5.83789Z" fill="#1A4564"/>
<path d="M8.10482 5.83789H11.4782V6.66532H8.10482V5.83789Z" fill="#1A4564"/>
<path d="M11.4782 6.66532H12.3692V7.49274H11.4782V6.66532Z" fill="#1A4564"/>
<path d="M9.75967 10.0387H10.6507V10.8661H9.75967V10.0387Z" fill="#1A4564"/>
<path d="M13.133 10.0387H14.0241V10.8661H13.133V10.0387Z" fill="#1A4564"/>
<path d="M14.8515 16.0216H15.7426V16.7854H14.8515V16.0216Z" fill="#4E89AB"/>
<path d="M8.10482 16.0216H8.99589V16.7854H8.10482V16.0216Z" fill="#4E89AB"/>
<path d="M8.10482 13.4757H8.99589V15.1305H8.10482V13.4757Z" fill="#FFFDDE"/>
<path d="M14.8515 13.4757H15.7426V15.1305H14.8515V13.4757Z" fill="#FFFDDE"/>
<path d="M10.6507 10.8661H13.133V11.6935H10.6507V10.8661Z" fill="#5088AC"/>
<path d="M15.7426 6.66532H16.6337V7.49274H15.7426V6.66532Z" fill="#1A4564"/>
<path d="M14.0241 7.49274H15.7426V9.14759H14.0241V7.49274Z" fill="#1A4564"/>
<path d="M8.04117 7.49274H9.75967V9.14759H8.04117V7.49274Z" fill="#1A4564"/>
<path d="M7.21375 6.66532H8.10482V7.49274H7.21375V6.66532Z" fill="#1A4564"/>
<path d="M6.32267 7.49274H7.21375V9.14759V10.0387H6.32267V7.49274Z" fill="#1A4564"/>
<path d="M5.4316 10.0387H6.32267V11.7572H5.4316V10.0387Z" fill="#1A4564"/>
<path d="M4.54053 11.7572H5.4316V15.2578H4.54053V11.7572Z" fill="#1A4564"/>
<path d="M5.4316 15.2578H6.32267V16.0216H5.4316V15.2578Z" fill="#1A4564"/>
<path d="M6.32267 16.0216H7.21375V16.7854H6.32267V16.0216Z" fill="#1A4564"/>
<path d="M7.21375 16.7854H8.99589V17.5491H7.21375V16.7854Z" fill="#1A4564"/>
<path d="M8.99589 17.5491H10.6507V18.3129H8.99589V17.5491Z" fill="#1A4564"/>
<path d="M17.4611 7.49274H16.57V9.14759V10.0387H17.4611V7.49274Z" fill="#1A4564"/>
<path d="M18.3522 10.0387H17.4611V11.7572H18.3522V10.0387Z" fill="#1A4564"/>
<path d="M19.2432 11.7572H18.3522V15.2578H19.2432V11.7572Z" fill="#1A4564"/>
<path d="M18.3522 15.2578H17.4611V16.0216H18.3522V15.2578Z" fill="#1A4564"/>
<path d="M17.4611 16.0216H16.57V16.7854H17.4611V16.0216Z" fill="#1A4564"/>
<path d="M16.57 16.7854H14.8515V17.5491H16.57V16.7854Z" fill="#1A4564"/>
<path d="M14.8515 17.5491H13.133V18.3129H14.8515V17.5491Z" fill="#1A4564"/>
<path d="M10.6507 16.7854H13.133V17.5491H10.6507V16.7854Z" fill="#1A4564"/>
<path fill-rule="evenodd" clip-rule="evenodd" d="M16.57 9.14759H14.8833V10.0387H14.0241V11.6935H14.8833V12.5846H16.6018V11.7253H17.4611V10.0387H16.57V9.14759ZM16.57 10.0387H14.8833V11.6935L16.6018 11.7253L16.57 10.0387Z" fill="#FF9170"/>
<path d="M16.57 10.0387H14.8833V11.6935L16.6018 11.7253L16.57 10.0387Z" fill="#FF9170"/>
<path fill-rule="evenodd" clip-rule="evenodd" d="M8.90042 9.14759H7.21375V10.0387H6.32267V11.7253H7.18192V12.5846H8.90042V11.6935H9.75967V10.0387H8.90042V9.14759ZM8.90042 10.0387H7.21375L7.18192 11.7253L8.90042 11.6935V10.0387Z" fill="#FF9170"/>
<path d="M8.90042 10.0387H7.21375L7.18192 11.7253L8.90042 11.6935V10.0387Z" fill="#FF9170"/>
<path d="M15.7426 6.66532H12.3692V7.49274H11.4782V6.66532H8.10482V7.49274H9.75967V9.14759H8.90042V10.0387H9.75967H10.6507V10.8661H13.133V10.0387H14.0241H14.8833V9.14759H14.0241V7.49274H15.7426V6.66532Z" fill="#C0ED7C"/>
<path d="M8.04117 9.14759V7.49274H7.21375V9.14759H8.04117Z" fill="#C0ED7C"/>
<path d="M16.57 7.49274H15.7426V9.14759H16.57V7.49274Z" fill="#C1EF7B"/>
<path fill-rule="evenodd" clip-rule="evenodd" d="M13.133 11.6935H10.6507V12.5846H9.75967H8.99589V16.0216H9.82332H10.6507V16.7854H13.133V16.0216H13.9923H14.8515V12.5846H14.0241H13.133V11.6935Z" fill="#FFFDDE"/>
<path fill-rule="evenodd" clip-rule="evenodd" d="M14.8515 16.0216V16.7854V17.5491H13.133V16.7854H13.9923V16.0216H14.8515Z" fill="#C1EF7D"/>
<path d="M13.133 16.0216V16.7854H13.9923V16.0216H13.133Z" fill="#DFF8B2"/>
<path fill-rule="evenodd" clip-rule="evenodd" d="M8.99589 16.7854V16.0216H9.82332V16.7854H10.6507V17.5491H8.99589V16.7854Z" fill="#C1EF7D"/>
<path d="M10.6507 16.7854V16.0216H9.82332V16.7854H10.6507Z" fill="#E1F8AE"/>
<path fill-rule="evenodd" clip-rule="evenodd" d="M13.133 10.8661H14.0241V11.6935H13.133V10.8661ZM14.0241 12.5846V11.6935H14.8833V12.5846H16.6018V11.7253H17.4611V11.7572H18.3522V15.2578H17.4611V16.0216H16.57V16.7854H15.7426V16.0216H14.8515V15.1305H15.7426V13.4757H14.8515V12.5846H14.0241Z" fill="#C0ED7C"/>
<path d="M13.133 11.6935V12.5846H14.0241V11.6935H13.133Z" fill="#E1F8AE"/>
<path fill-rule="evenodd" clip-rule="evenodd" d="M9.75967 10.8661H10.6507V11.6935H9.75967V10.8661ZM9.75967 12.5846V11.6935H8.90042V12.5846H7.18192V11.7253H6.32267V11.7572H5.4316V15.2578H6.32267V16.0216H7.21375V16.7854H8.10482V16.0216H8.99589V15.1305H8.10482V13.4757H8.99589V12.5846H9.75967Z" fill="#C0ED7C"/>
<path d="M10.6507 12.5846V11.6935H9.75967V12.5846H10.6507Z" fill="#DEF8AF"/>
<defs>
<filter id="filter0_d_94_1460" x="0" y="0" width="24" height="26" filterUnits="userSpaceOnUse" color-interpolation-filters="sRGB">
<feFlood flood-opacity="0" result="BackgroundImageFix"/>
<feColorMatrix in="SourceAlpha" type="matrix" values="0 0 0 0 0 0 0 0 0 0 0 0 0 0 0 0 0 0 127 0" result="hardAlpha"/>
<feOffset dy="2"/>
<feComposite in2="hardAlpha" operator="out"/>
<feColorMatrix type="matrix" values="0 0 0 0 0.980392 0 0 0 0 0.505882 0 0 0 0 0.0666667 0 0 0 1 0"/>
<feBlend mode="normal" in2="BackgroundImageFix" result="effect1_dropShadow_94_1460"/>
<feBlend mode="normal" in="SourceGraphic" in2="effect1_dropShadow_94_1460" result="shape"/>
</filter>
</defs>
</svg>
