<svg width="231" height="196" viewBox="0 0 231 196" fill="none" xmlns="http://www.w3.org/2000/svg">
<path d="M123 0H175V13H123V0Z" fill="#1A4564"/>
<path d="M56 0H109V13H56V0Z" fill="#1A4564"/>
<path d="M109 13H123V26H109V13Z" fill="#1A4564"/>
<path d="M82 66H96V79H82V66Z" fill="#1A4564"/>
<path d="M135 66H149V79H135V66Z" fill="#1A4564"/>
<path d="M162 160H176V172H162V160Z" fill="#4E89AB"/>
<path d="M56 160H70V172H56V160Z" fill="#4E89AB"/>
<path d="M96 79H135V92H96V79Z" fill="#5088AC"/>
<path d="M175 13H189V26H175V13Z" fill="#1A4564"/>
<path d="M149 26H175C175 26 175 42 175 52C164.456 52 149 52 149 52V26Z" fill="#1A4564"/>
<path d="M56 26H82V52H56V26Z" fill="#1A4564"/>
<path d="M42 13H56V26H42V13Z" fill="#1A4564"/>
<path d="M28 26H42V52V66L28 65.5V26Z" fill="#1A4564"/>
<path d="M14 65.5H28V92H14V65.5Z" fill="#1A4564"/>
<path d="M0 92H14V148H0V92Z" fill="#1A4564"/>
<path d="M14 148H28V160H14V148Z" fill="#1A4564"/>
<path d="M28 160H42V172H28V160Z" fill="#1A4564"/>
<path d="M42 172H70V184H42V172Z" fill="#1A4564"/>
<path d="M70 184H96V196H70V184Z" fill="#1A4564"/>
<path d="M203 26H189V52V66H203V26Z" fill="#1A4564"/>
<path d="M217 66H203V92H217V66Z" fill="#1A4564"/>
<path d="M231 92H217V148H231V92Z" fill="#1A4564"/>
<path d="M217 148H203V160H217V148Z" fill="#1A4564"/>
<path d="M203 160H189V172H203V160Z" fill="#1A4564"/>
<path d="M189 172H162V184H189V172Z" fill="#1A4564"/>
<path d="M162 184H135V196H162V184Z" fill="#1A4564"/>
<path d="M96 172H135V184H96V172Z" fill="#1A4564"/>
<path fill-rule="evenodd" clip-rule="evenodd" d="M189 52H162.5V66H149V92H162.5V106H189.5V92H203V66H189V52Z" fill="#FF9170"/>
<path fill-rule="evenodd" clip-rule="evenodd" d="M68.5 52H42V66L28 65.5V92H41.5V106H68.5V92H82V66H68.5V52Z" fill="#FF9170"/>
<path d="M175 13H123V26H109V13H56V26H82V52H68.5V66H82H96V79H135V66H149H162.5V52H149V26H175V13Z" fill="#C0ED7C"/>
<path d="M56 52V26H42V52H56Z" fill="#C0ED7C"/>
<path d="M189 26H175C175 26 175 42 175 52C180.077 52 189 52 189 52V26Z" fill="#C1EF7B"/>
<path fill-rule="evenodd" clip-rule="evenodd" d="M162 160V172V184H135V172H148.5V160H162Z" fill="#C1EF7D"/>
<path d="M135 160V172H148.5V160H135Z" fill="#DFF8B2"/>
<path fill-rule="evenodd" clip-rule="evenodd" d="M70 172V160H83V172H96V184H70V172Z" fill="#C1EF7D"/>
<path d="M96 172V160H83V172H96Z" fill="#E1F8AE"/>
<path fill-rule="evenodd" clip-rule="evenodd" d="M135 79H149V92H135V79ZM149 106V92H162.5V106H189.5V92H203H217V148H203V160H189V172H176V160H162V146H176V120H162.5V106H149Z" fill="#C0ED7C"/>
<path d="M135 92V106H149V92H135Z" fill="#E1F8AE"/>
<path fill-rule="evenodd" clip-rule="evenodd" d="M82 79H96V92H82V79ZM82 106V92H68.5V106H41.5V92H28H14V148H28V160H42V172H56V160H70V146H56V120H68.5V106L82 106Z" fill="#C0ED7C"/>
<path d="M96 106V92H82V106H96Z" fill="#DEF8AF"/>
<path d="M68.5 120H56V146H70V160H83H96V172H135V160H148.5H162V146H176V120H162.5V106H149H135V92H96V106H82L68.5 106V120Z" fill="#FFFDDE"/>
</svg>
