<svg width="294" height="216" viewBox="0 0 294 216" fill="none" xmlns="http://www.w3.org/2000/svg">
<path d="M94.678 209.067H194.339V224H94.678V209.067Z" fill="#1B426C"/>
<path d="M194.339 194.133H229.22V209.067H194.339V194.133Z" fill="#1B426C"/>
<path d="M229.22 179.2H244.169V194.133H229.22V179.2Z" fill="#1B426C"/>
<path d="M244.169 164.267H259.119V179.2H244.169V164.267Z" fill="#1B426C"/>
<path d="M279.051 74.6667H294V119.467H279.051V74.6667Z" fill="#1B426C"/>
<path d="M0 74.6667H14.9492V139.378H0V74.6667Z" fill="#1B426C"/>
<path d="M264.102 44.8H279.051V74.6667H264.102V44.8Z" fill="#1B426C"/>
<path d="M14.9492 44.8H29.8983V74.6667H14.9492V44.8Z" fill="#1B426C"/>
<path d="M14.9492 139.378H29.8983V179.2H14.9492V139.378Z" fill="#1B426C"/>
<path d="M229.22 149.333H244.169V164.267H229.22V149.333Z" fill="#1B426C"/>
<path d="M229.22 29.8667H264.102V44.8H229.22V29.8667Z" fill="#1B426C"/>
<path d="M194.339 14.9333H229.22V29.8667H194.339V14.9333Z" fill="#1B426C"/>
<path d="M64.7797 14.9333H99.661V29.8667H64.7797V14.9333Z" fill="#1B426C"/>
<path d="M64.7797 194.133H99.661V209.067H64.7797V194.133Z" fill="#1B426C"/>
<path d="M29.8983 29.8667H64.7797V44.8H29.8983V29.8667Z" fill="#1B426C"/>
<path d="M29.8983 179.2H64.7797V194.133H29.8983V179.2Z" fill="#1B426C"/>
<path d="M99.661 0H194.339V14.9333H99.661V0Z" fill="#1B426C"/>
<path d="M214.271 134.4H229.22V149.333H214.271V134.4Z" fill="#1B426C"/>
<path d="M229.22 119.467H294V134.4H229.22V119.467Z" fill="#1B426C"/>
<path d="M99.661 209.067H194.339V194.133H229.22V179.2H244.169V164.267H229.22V149.333H214.271V134.4H229.22V119.467H279.051V74.6667H264.102V44.8H229.22V29.8667H194.339V14.9333H99.661V29.8667H64.7797V44.8H29.8983V74.6667H14.9492V139.378H29.8983V179.2H64.7797V194.133H99.661V209.067Z" fill="#22C485"/>
</svg>
