<svg width="125" height="125" viewBox="0 0 125 125" fill="none" xmlns="http://www.w3.org/2000/svg">
<g filter="url(#filter0_d_94_1062)">
<g clip-path="url(#clip0_94_1062)">
<rect x="6.5" y="6.37842" width="112" height="112" rx="24.807" fill="#6DFF8B"/>
<path d="M83.6325 83.9079C83.6325 84.1324 83.643 84.3544 83.6636 84.5735C83.7045 85.0099 83.7853 85.4347 83.9023 85.8441C84.0038 86.1993 84.1325 86.543 84.286 86.8727C84.5403 87.4189 84.8626 87.9268 85.242 88.3854C85.6027 88.8214 86.0149 89.2129 86.4694 89.5506C86.8766 89.8531 87.3177 90.1124 87.786 90.3217C88.4107 90.6009 89.0838 90.7911 89.7892 90.8762C90.0662 90.9096 90.3482 90.9268 90.6342 90.9268C90.9202 90.9268 91.2022 90.9096 91.4792 90.8762C92.1846 90.7911 92.8577 90.6009 93.4824 90.3217C94.0448 90.0703 94.568 89.7468 95.0404 89.3629C95.4003 89.0704 95.7307 88.7429 96.0264 88.3854C96.5158 87.7939 96.9101 87.1204 97.186 86.3887C97.3604 85.926 97.4875 85.4399 97.5612 84.9365C97.6104 84.6008 97.6359 84.2573 97.6359 83.9079C97.6359 83.6834 97.6254 83.4614 97.6048 83.2423C97.5639 82.8059 97.483 82.3811 97.3661 81.9716C97.1942 81.3699 96.9441 80.8013 96.6277 80.2774C96.3434 79.8067 96.0054 79.3721 95.6222 78.9823C95.1818 78.5341 94.6818 78.1451 94.135 77.828C93.7358 77.5965 93.3116 77.4033 92.8675 77.2536C92.423 77.1038 91.9586 76.9974 91.4792 76.9396C91.2022 76.9062 90.9202 76.889 90.6342 76.889C90.3482 76.889 90.0662 76.9062 89.7892 76.9396C89.3098 76.9974 88.8454 77.1038 88.4009 77.2536C87.9568 77.4033 87.5326 77.5965 87.1334 77.828C86.6994 78.0797 86.2948 78.3767 85.9262 78.7126C85.5872 79.0215 85.2786 79.3633 85.0053 79.7329C84.7271 80.1091 84.4856 80.5143 84.286 80.943C84.1325 81.2728 84.0038 81.6164 83.9023 81.9716C83.7854 82.3811 83.7045 82.8059 83.6636 83.2423C83.643 83.4614 83.6325 83.6834 83.6325 83.9079Z" fill="#22C485"/>
<path d="M22.549 5.36914L85.9262 78.7126C85.5872 79.0215 85.2786 79.3633 85.0053 79.7329L-9.13965 11.4804V5.36914H22.549Z" fill="#22C485"/>
<path d="M70.3535 5.36914L88.4009 77.2536C87.9568 77.4033 87.5326 77.5965 87.1334 77.828L48.6845 5.36914H70.3535Z" fill="#22C485"/>
<path d="M90.6342 76.889C90.3482 76.889 90.0662 76.9062 89.7892 76.9396V5.36914H108.863L91.4792 76.9396C91.2022 76.9062 90.9202 76.889 90.6342 76.889Z" fill="#22C485"/>
<path d="M138.68 26.7888L94.135 77.828C93.7358 77.5965 93.3116 77.4033 92.8675 77.2536L130.532 5.36914H138.68V26.7888Z" fill="#22C485"/>
<path d="M138.68 62.2462L96.6277 80.2774C96.3434 79.8067 96.0054 79.3721 95.6222 78.9823L138.68 48.0874V62.2462Z" fill="#22C485"/>
<path d="M138.68 84.5735L97.6048 83.2423C97.5639 82.8059 97.483 82.3811 97.3661 81.9716L138.68 74.1057V84.5735Z" fill="#22C485"/>
<path d="M138.68 106.235L97.186 86.3887C97.3604 85.926 97.4875 85.4399 97.5612 84.9365L138.68 94.1942V106.235Z" fill="#22C485"/>
<path d="M138.68 142.298L95.0404 89.3629C95.4003 89.0704 95.7307 88.7429 96.0264 88.3854L138.68 120.515V142.298Z" fill="#22C485"/>
<path d="M106.267 153.189L91.4792 90.8762C92.1846 90.7911 92.8577 90.6009 93.4824 90.3217L125.039 153.189H106.267Z" fill="#22C485"/>
<path d="M72.0435 153.189L87.786 90.3217C88.4107 90.6009 89.0838 90.7911 89.7892 90.8762V153.189H72.0435Z" fill="#22C485"/>
<path d="M29.5506 153.189L85.242 88.3854C85.6027 88.8214 86.0149 89.2129 86.4694 89.5506L53.4529 153.189H29.5506Z" fill="#22C485"/>
<path d="M-9.13965 128.26L83.9023 85.8441C84.0038 86.1993 84.1325 86.543 84.286 86.8727L-3.52625 153.189H-9.13965V128.26Z" fill="#22C485"/>
<path d="M83.6636 83.2423C83.643 83.4614 83.6325 83.6834 83.6325 83.9079C83.6325 84.1324 83.643 84.3544 83.6636 84.5735L-9.13965 104.541V83.9079L83.6636 83.2423Z" fill="#22C485"/>
<path d="M-9.13965 40.282L84.286 80.943C84.1325 81.2728 84.0038 81.6164 83.9023 81.9716L-9.13965 63.1538V40.282Z" fill="#22C485"/>
<path d="M9.00003 118.009C45.7174 108.511 109.675 95.7435 111.861 109.235C112.877 115.502 104.026 118.009 97.6772 118.009H9.00003Z" fill="#051827"/>
<path d="M77.1299 41.3784H95.7143V45.9549H77.1299V41.3784Z" fill="#1A4564"/>
<path d="M53.6364 41.3784H72.2208V45.9549H53.6364V41.3784Z" fill="#1A4564"/>
<path d="M72.2208 45.9549H77.1299V50.5315H72.2208V45.9549Z" fill="#1A4564"/>
<path d="M62.7532 64.6131H67.6623V69.1896H62.7532V64.6131Z" fill="#1A4564"/>
<path d="M81.3377 64.6131H86.2468V69.1896H81.3377V64.6131Z" fill="#1A4564"/>
<path d="M90.8052 97.7049H95.7143V101.929H90.8052V97.7049Z" fill="#4E89AB"/>
<path d="M53.6364 97.7049H58.5455V101.929H53.6364V97.7049Z" fill="#4E89AB"/>
<path d="M53.6364 83.6233H58.5455V92.7764H53.6364V83.6233Z" fill="#FFFDDE"/>
<path d="M90.8052 83.6233H95.7143V92.7764H90.8052V83.6233Z" fill="#FFFDDE"/>
<path d="M67.6623 69.1896H81.3377V73.7662H67.6623V69.1896Z" fill="#5088AC"/>
<path d="M95.7143 45.9549H100.623V50.5315H95.7143V45.9549Z" fill="#1A4564"/>
<path d="M86.2468 50.5315H95.7143V59.6845H86.2468V50.5315Z" fill="#1A4564"/>
<path d="M53.2857 50.5315H62.7532V59.6845H53.2857V50.5315Z" fill="#1A4564"/>
<path d="M48.7273 45.9549H53.6364V50.5315H48.7273V45.9549Z" fill="#1A4564"/>
<path d="M43.8182 50.5315H48.7273V59.6845V64.6131H43.8182V50.5315Z" fill="#1A4564"/>
<path d="M38.9091 64.6131H43.8182V74.1182H38.9091V64.6131Z" fill="#1A4564"/>
<path d="M34 74.1182H38.9091V93.4805H34V74.1182Z" fill="#1A4564"/>
<path d="M38.9091 93.4805H43.8182V97.7049H38.9091V93.4805Z" fill="#1A4564"/>
<path d="M43.8182 97.7049H48.7273V101.929H43.8182V97.7049Z" fill="#1A4564"/>
<path d="M48.7273 101.929H58.5455V106.154H48.7273V101.929Z" fill="#1A4564"/>
<path d="M58.5455 106.154H67.6623V110.378H58.5455V106.154Z" fill="#1A4564"/>
<path d="M105.182 50.5315H100.273V59.6845V64.6131H105.182V50.5315Z" fill="#1A4564"/>
<path d="M110.091 64.6131H105.182V74.1182H110.091V64.6131Z" fill="#1A4564"/>
<path d="M115 74.1182H110.091V93.4805H115V74.1182Z" fill="#1A4564"/>
<path d="M110.091 93.4805H105.182V97.7049H110.091V93.4805Z" fill="#1A4564"/>
<path d="M105.182 97.7049H100.273V101.929H105.182V97.7049Z" fill="#1A4564"/>
<path d="M100.273 101.929H90.8052V106.154H100.273V101.929Z" fill="#1A4564"/>
<path d="M90.8052 106.154H81.3377V110.378H90.8052V106.154Z" fill="#1A4564"/>
<path d="M67.6623 101.929H81.3377V106.154H67.6623V101.929Z" fill="#1A4564"/>
<path fill-rule="evenodd" clip-rule="evenodd" d="M100.273 59.6845H90.9805V64.6131H86.2468V73.7662H90.9805V78.6947H100.448V73.9422H105.182V64.6131H100.273V59.6845ZM100.273 64.6131H90.9805V73.7662L100.448 73.9422L100.273 64.6131Z" fill="#FF9170"/>
<path d="M100.273 64.6131H90.9805V73.7662L100.448 73.9422L100.273 64.6131Z" fill="#FF9170"/>
<path fill-rule="evenodd" clip-rule="evenodd" d="M58.0195 59.6845H48.7273V64.6131H43.8182V73.9422H48.5519V78.6947H58.0195V73.7662H62.7532V64.6131H58.0195V59.6845ZM58.0195 64.6131H48.7273L48.5519 73.9422L58.0195 73.7662V64.6131Z" fill="#FF9170"/>
<path d="M58.0195 64.6131H48.7273L48.5519 73.9422L58.0195 73.7662V64.6131Z" fill="#FF9170"/>
<path d="M95.7143 45.9549H77.1299V50.5315H72.2208V45.9549H53.6364V50.5315H62.7532V59.6845H58.0195V64.6131H62.7532H67.6623V69.1896H81.3377V64.6131H86.2468H90.9805V59.6845H86.2468V50.5315H95.7143V45.9549Z" fill="#C0ED7C"/>
<path d="M53.2857 59.6845V50.5315H48.7273V59.6845H53.2857Z" fill="#C0ED7C"/>
<path d="M100.273 50.5315H95.7143V59.6845H100.273V50.5315Z" fill="#C1EF7B"/>
<path fill-rule="evenodd" clip-rule="evenodd" d="M81.3377 73.7662H67.6623V78.6947H62.7532H58.5455V97.7049H63.1039H67.6623V101.929H81.3377V97.7049H86.0714H90.8052V78.6947H86.2468H81.3377V73.7662Z" fill="#FFFDDE"/>
<path fill-rule="evenodd" clip-rule="evenodd" d="M90.8052 97.7049V101.929V106.154H81.3377V101.929H86.0714V97.7049H90.8052Z" fill="#C1EF7D"/>
<path d="M81.3377 97.7049V101.929H86.0714V97.7049H81.3377Z" fill="#DFF8B2"/>
<path fill-rule="evenodd" clip-rule="evenodd" d="M58.5455 101.929V97.7049H63.1039V101.929H67.6623V106.154H58.5455V101.929Z" fill="#C1EF7D"/>
<path d="M67.6623 101.929V97.7049H63.1039V101.929H67.6623Z" fill="#E1F8AE"/>
<path fill-rule="evenodd" clip-rule="evenodd" d="M81.3377 69.1896H86.2468V73.7662H81.3377V69.1896ZM86.2468 78.6947V73.7662H90.9805V78.6947H100.448V73.9422H105.182V74.1182H110.091V93.4805H105.182V97.7049H100.273V101.929H95.7143V97.7049H90.8052V92.7764H95.7143V83.6233H90.8052V78.6947H86.2468Z" fill="#C0ED7C"/>
<path d="M81.3377 73.7662V78.6947H86.2468V73.7662H81.3377Z" fill="#E1F8AE"/>
<path fill-rule="evenodd" clip-rule="evenodd" d="M62.7532 69.1896H67.6623V73.7662H62.7532V69.1896ZM62.7532 78.6947V73.7662H58.0195V78.6947H48.5519V73.9422H43.8182V74.1182H38.9091V93.4805H43.8182V97.7049H48.7273V101.929H53.6364V97.7049H58.5455V92.7764H53.6364V83.6233H58.5455V78.6947H62.7532Z" fill="#C0ED7C"/>
<path d="M67.6623 78.6947V73.7662H62.7532V78.6947H67.6623Z" fill="#DEF8AF"/>
<path d="M41.2375 51.0407C40.5922 52.1768 40.939 53.6188 42.0304 54.3372L70.9565 73.3784H76.3205L44.8625 50.2668C43.666 49.3879 41.9706 49.7498 41.2375 51.0407Z" fill="#EE3E58"/>
<path d="M42.6148 61.3144L66.2235 73.3784H70.9565L42.0304 54.3372C40.939 53.6188 40.5922 52.1768 41.2375 51.0407C41.9706 49.7498 43.666 49.3879 44.8625 50.2668L76.3205 73.3784H82L48.107 45.0689C47.3961 44.4751 46.5832 43.9953 45.6844 43.7713C33.5172 40.7378 30.7359 56.1045 42.6148 61.3144Z" fill="#F25965"/>
<g filter="url(#filter1_d_94_1062)">
<rect x="28.0479" y="43.4263" width="10.2385" height="6.14308" fill="white"/>
<rect x="52.6201" y="47.5215" width="6.14308" height="6.14308" fill="white"/>
<rect x="58.7632" y="49.5698" width="2.04769" height="4.09539" fill="white"/>
<rect x="56.7156" y="45.4741" width="2.04769" height="4.09539" transform="rotate(90 56.7156 45.4741)" fill="white"/>
<rect x="56.7156" y="53.6646" width="2.04769" height="4.09539" transform="rotate(90 56.7156 53.6646)" fill="white"/>
<rect x="36.2388" y="49.5698" width="2.04769" height="4.09539" transform="rotate(90 36.2388 49.5698)" fill="white"/>
<rect x="34.1907" y="41.3784" width="2.04769" height="2.04769" transform="rotate(90 34.1907 41.3784)" fill="white"/>
<rect x="36.2388" y="41.3784" width="2.04769" height="2.04769" transform="rotate(90 36.2388 41.3784)" fill="white" fill-opacity="0.71"/>
<rect x="38.2864" y="41.3784" width="2.04769" height="2.04769" transform="rotate(90 38.2864 41.3784)" fill="white" fill-opacity="0.48"/>
<rect x="40.334" y="43.4263" width="2.04769" height="2.04769" transform="rotate(90 40.334 43.4263)" fill="#D9D9D9"/>
<rect x="42.3816" y="43.4263" width="2.04769" height="2.04769" transform="rotate(90 42.3816 43.4263)" fill="#D9D9D9"/>
<rect x="50.5725" y="43.4263" width="2.04769" height="2.04769" transform="rotate(90 50.5725 43.4263)" fill="black" fill-opacity="0.76"/>
<rect x="52.6201" y="45.4741" width="2.04769" height="2.04769" transform="rotate(90 52.6201 45.4741)" fill="#A7ADAD"/>
<rect x="52.6201" y="47.5215" width="2.04769" height="2.04769" transform="rotate(90 52.6201 47.5215)" fill="#7F7F7F"/>
<rect x="52.6201" y="49.5698" width="2.04769" height="2.04769" transform="rotate(90 52.6201 49.5698)" fill="#9F9F9F"/>
<rect x="48.5247" y="41.3784" width="2.04769" height="2.04769" transform="rotate(90 48.5247 41.3784)" fill="black" fill-opacity="0.21"/>
<rect x="46.4768" y="41.3784" width="2.04769" height="2.04769" transform="rotate(90 46.4768 41.3784)" fill="black" fill-opacity="0.53"/>
<rect x="44.4294" y="41.3784" width="2.04769" height="2.04769" transform="rotate(90 44.4294 41.3784)" fill="black" fill-opacity="0.21"/>
<rect x="40.334" y="49.5698" width="2.04769" height="2.04769" transform="rotate(90 40.334 49.5698)" fill="#D0D0D0"/>
<rect x="38.2864" y="51.6172" width="2.04769" height="2.04769" transform="rotate(90 38.2864 51.6172)" fill="black" fill-opacity="0.52"/>
<rect x="38.2864" y="53.6646" width="2.04769" height="2.04769" transform="rotate(90 38.2864 53.6646)" fill="black" fill-opacity="0.18"/>
<rect x="40.334" y="55.7124" width="2.04769" height="2.04769" transform="rotate(90 40.334 55.7124)" fill="black" fill-opacity="0.18"/>
<rect x="42.3816" y="55.7124" width="2.04769" height="2.04769" transform="rotate(90 42.3816 55.7124)" fill="black" fill-opacity="0.6"/>
<rect x="44.4294" y="55.7124" width="2.04769" height="2.04769" transform="rotate(90 44.4294 55.7124)" fill="black" fill-opacity="0.69"/>
<rect x="46.4768" y="55.7124" width="2.04769" height="2.04769" transform="rotate(90 46.4768 55.7124)" fill="black" fill-opacity="0.3"/>
<rect x="48.5247" y="53.6646" width="2.04769" height="2.04769" transform="rotate(90 48.5247 53.6646)" fill="black" fill-opacity="0.76"/>
<rect x="50.5725" y="51.6172" width="2.04769" height="2.04769" transform="rotate(90 50.5725 51.6172)" fill="black" fill-opacity="0.76"/>
<rect x="40.334" y="47.5215" width="2.04769" height="2.04769" transform="rotate(90 40.334 47.5215)" fill="#D9D9D9"/>
<rect x="40.334" y="45.4741" width="2.04769" height="2.04769" transform="rotate(90 40.334 45.4741)" fill="#D9D9D9"/>
<rect x="32.1433" y="41.3784" width="2.04769" height="2.04769" transform="rotate(90 32.1433 41.3784)" fill="white" fill-opacity="0.71"/>
<rect x="30.0957" y="41.3784" width="2.04769" height="2.04769" transform="rotate(90 30.0957 41.3784)" fill="white" fill-opacity="0.46"/>
<rect x="28.0479" y="43.4263" width="2.04769" height="2.04769" transform="rotate(90 28.0479 43.4263)" fill="white" fill-opacity="0.46"/>
<rect x="28.0479" y="45.4741" width="2.04769" height="2.04769" transform="rotate(90 28.0479 45.4741)" fill="white" fill-opacity="0.81"/>
<rect x="28.0479" y="47.5215" width="2.04769" height="2.04769" transform="rotate(90 28.0479 47.5215)" fill="white" fill-opacity="0.46"/>
<rect x="30.0957" y="49.5698" width="2.04769" height="2.04769" transform="rotate(90 30.0957 49.5698)" fill="white" fill-opacity="0.46"/>
<rect x="32.1433" y="49.5698" width="2.04769" height="2.04769" transform="rotate(90 32.1433 49.5698)" fill="white" fill-opacity="0.86"/>
<rect x="38.2864" y="49.5698" width="2.04769" height="2.04769" transform="rotate(90 38.2864 49.5698)" fill="#D9D9D9"/>
<rect x="36.2388" y="51.6172" width="2.04769" height="2.04769" transform="rotate(90 36.2388 51.6172)" fill="white" fill-opacity="0.38"/>
<rect x="34.1907" y="51.6172" width="2.04769" height="2.04769" transform="rotate(90 34.1907 51.6172)" fill="white" fill-opacity="0.38"/>
<rect x="52.6201" y="53.6646" width="2.04769" height="2.04769" transform="rotate(90 52.6201 53.6646)" fill="white" fill-opacity="0.66"/>
<rect x="58.7632" y="53.6646" width="2.04769" height="2.04769" transform="rotate(90 58.7632 53.6646)" fill="white" fill-opacity="0.72"/>
<rect x="58.7632" y="45.4741" width="2.04769" height="2.04769" transform="rotate(90 58.7632 45.4741)" fill="white" fill-opacity="0.62"/>
<rect x="60.811" y="47.5215" width="2.04769" height="2.04769" transform="rotate(90 60.811 47.5215)" fill="white" fill-opacity="0.62"/>
<rect x="60.811" y="53.6646" width="2.04769" height="2.04769" transform="rotate(90 60.811 53.6646)" fill="white" fill-opacity="0.31"/>
<rect x="56.7156" y="55.7124" width="2.04769" height="2.04769" transform="rotate(90 56.7156 55.7124)" fill="white" fill-opacity="0.38"/>
<rect x="54.6677" y="55.7124" width="2.04769" height="2.04769" transform="rotate(90 54.6677 55.7124)" fill="white" fill-opacity="0.38"/>
<rect x="46.4768" y="53.6646" width="2.0477" height="8.19078" transform="rotate(90 46.4768 53.6646)" fill="black"/>
<rect x="48.5247" y="51.6172" width="2.0477" height="10.2385" transform="rotate(90 48.5247 51.6172)" fill="black"/>
<rect x="50.5725" y="45.4741" width="6.14308" height="10.2385" transform="rotate(90 50.5725 45.4741)" fill="black"/>
<rect x="48.5247" y="43.4263" width="2.0477" height="6.14308" transform="rotate(90 48.5247 43.4263)" fill="black"/>
<rect x="52.6201" y="51.6172" width="2.04769" height="2.04769" transform="rotate(90 52.6201 51.6172)" fill="white"/>
<rect x="46.4768" y="43.4263" width="4.09539" height="4.09539" rx="2.04769" fill="url(#paint0_radial_94_1062)"/>
<rect x="46.4768" y="45.4741" width="4.09539" height="4.09539" rx="2.04769" fill="url(#paint1_radial_94_1062)"/>
</g>
</g>
<rect x="8" y="7.87842" width="109" height="109" rx="23.307" stroke="#599268" stroke-width="3"/>
</g>
<defs>
<filter id="filter0_d_94_1062" x="0.86478" y="0.743198" width="123.27" height="123.27" filterUnits="userSpaceOnUse" color-interpolation-filters="sRGB">
<feFlood flood-opacity="0" result="BackgroundImageFix"/>
<feColorMatrix in="SourceAlpha" type="matrix" values="0 0 0 0 0 0 0 0 0 0 0 0 0 0 0 0 0 0 127 0" result="hardAlpha"/>
<feOffset/>
<feGaussianBlur stdDeviation="2.81761"/>
<feComposite in2="hardAlpha" operator="out"/>
<feColorMatrix type="matrix" values="0 0 0 0 0 0 0 0 0 0 0 0 0 0 0 0 0 0 0.15 0"/>
<feBlend mode="normal" in2="BackgroundImageFix" result="effect1_dropShadow_94_1062"/>
<feBlend mode="normal" in="SourceGraphic" in2="effect1_dropShadow_94_1062" result="shape"/>
</filter>
<filter id="filter1_d_94_1062" x="23.9822" y="40.3694" width="38.8468" height="20.4179" filterUnits="userSpaceOnUse" color-interpolation-filters="sRGB">
<feFlood flood-opacity="0" result="BackgroundImageFix"/>
<feColorMatrix in="SourceAlpha" type="matrix" values="0 0 0 0 0 0 0 0 0 0 0 0 0 0 0 0 0 0 127 0" result="hardAlpha"/>
<feOffset dy="1.00901"/>
<feGaussianBlur stdDeviation="1.00901"/>
<feComposite in2="hardAlpha" operator="out"/>
<feColorMatrix type="matrix" values="0 0 0 0 0 0 0 0 0 0 0 0 0 0 0 0 0 0 0.25 0"/>
<feBlend mode="normal" in2="BackgroundImageFix" result="effect1_dropShadow_94_1062"/>
<feBlend mode="normal" in="SourceGraphic" in2="effect1_dropShadow_94_1062" result="shape"/>
</filter>
<radialGradient id="paint0_radial_94_1062" cx="0" cy="0" r="1" gradientUnits="userSpaceOnUse" gradientTransform="translate(48.5245 45.474) rotate(90) scale(2.04769)">
<stop stop-color="#B0102E"/>
<stop offset="1" stop-color="#4A0713"/>
</radialGradient>
<radialGradient id="paint1_radial_94_1062" cx="0" cy="0" r="1" gradientUnits="userSpaceOnUse" gradientTransform="translate(48.5245 47.5218) rotate(90) scale(2.04769)">
<stop stop-color="#B0102E"/>
<stop offset="1" stop-color="#4A0713"/>
</radialGradient>
<clipPath id="clip0_94_1062">
<rect x="6.5" y="6.37842" width="112" height="112" rx="24.807" fill="white"/>
</clipPath>
</defs>
</svg>
