<svg width="130" height="43" viewBox="0 0 130 43" fill="none" xmlns="http://www.w3.org/2000/svg">
<path d="M72.7704 15.8135L49.2704 2.81346L70.2704 16.3135L38.7704 28.3135L72.7704 18.3135L91.7704 31.8135L75.2704 18.3135L87.7133 17.7347L118.27 16.3135H86.489H75.7704L81.9769 12.2302L94.7704 3.81346L80.8682 11.3965L72.7704 15.8135Z" fill="#247155"/>
<path d="M48.2704 18.3135L12.2704 10.3139V13.3135L37.7704 18.8135L48.2704 18.3135Z" fill="#257356"/>
<path d="M102.77 34.3125C99.9907 34.7792 96.7895 35.2272 93.2704 35.6172C67.8825 38.4309 25.9434 38.23 6.27042 20.3135V24.3135C19.4686 37.0565 73.6773 46.4856 114.223 32.0801C110.987 32.9383 107.183 33.6911 102.77 34.3125Z" fill="#227356"/>
<path d="M118.27 16.3135L87.7133 17.7347C91.9722 23.0465 92.9089 28.558 93.2704 35.6172C96.7895 35.2272 99.9907 34.7792 102.77 34.3125C107.183 33.6911 110.987 32.9383 114.223 32.0801C118.223 30.6591 122 29 125.77 27.1019C140.555 15.7451 105.172 -1.89284 60.2704 0.165193C69.4919 4.29573 76.1083 7.91702 80.8682 11.3965L94.7704 3.81346L81.9769 12.2302C83.7477 13.6013 85.2361 14.9548 86.489 16.3135H118.27Z" fill="#14A679"/>
<path d="M12.2704 10.3139L48.2704 18.3135L37.7704 18.8135L6.27042 20.3135C25.9434 38.23 67.8825 38.4309 93.2704 35.6172C92.9089 28.558 91.9722 23.0465 87.7133 17.7347L75.2704 18.3135L91.7704 31.8135L72.7704 18.3135L38.7704 28.3135L70.2704 16.3135L49.2704 2.81346L72.7704 15.8135L80.8682 11.3965C76.1083 7.91702 69.4919 4.29573 60.2704 0.165193C44.8444 0.872242 28.2949 3.90402 12.2704 10.3139Z" fill="#008F68"/>
<path d="M86.489 16.3135C85.2361 14.9548 83.7477 13.6013 81.9769 12.2302L75.7704 16.3135H86.489Z" fill="#008F68"/>
<path d="M6.27042 20.3135L37.7704 18.8135L12.2704 13.3135C-40.2299 43 102 54.5 125 28C125.5 27.424 125.5 27.5 125.77 27.1019C122 29 118.223 30.6591 114.223 32.0801C73.6773 46.4856 19.4686 37.0565 6.27042 24.3135V20.3135Z" fill="#7DB79F"/>
</svg>
